<svg xmlns="http://www.w3.org/2000/svg" version="1.1" xmlns:xlink="http://www.w3.org/1999/xlink" width="512" height="512" x="0" y="0" viewBox="0 0 512 512" style="enable-background:new 0 0 512 512" xml:space="preserve" class=""><g><path fill-rule="evenodd" d="M266.985 36.642a12.317 12.317 0 0 0 8.864 14.96 77.911 77.911 0 0 1 35.69 20.35c15.824 15.83 22.82 36.417 20.968 58.554a12.294 12.294 0 0 0 11.2 13.268c.352.029.707.044 1.061.044a12.32 12.32 0 0 0 12.257-11.283c2.425-29.352-7.23-57.107-28.093-77.973a102.486 102.486 0 0 0-46.973-26.776 12.335 12.335 0 0 0-14.97 8.856zM512 511.987H291.4l172.466-72.247a12.278 12.278 0 0 0 7.508-11.347V213.4H512zM0 213.4h40.573v214.993a12.328 12.328 0 0 0 7.561 11.347L220.6 511.987H0zm65.206-46.473v253.28l178.5 74.779V406.3H229.5a42.389 42.389 0 0 1-42.316-42.347v-15.894l-3.273-1.49a29.849 29.849 0 0 1-17.5-27.143v-48.158a38.452 38.452 0 0 0-9.655-26.18l-9.1-10.613a177.449 177.449 0 0 1-27.172-42.754l-.9-2.014-54.378-22.776zM165.7 37.239a128.126 128.126 0 0 1 180.593 0A119.288 119.288 0 0 1 375.627 85.3c14.923 46.459 1.1 96.672-30.027 133.2l-9.045 10.612a63.3 63.3 0 0 0-15.155 34.581l-.561 4.961H191.094l-.544-4.982a62.531 62.531 0 0 0-15.094-34.552l-9.1-10.612c-31.257-36.461-44.974-86.692-30.031-133.146A119.57 119.57 0 0 1 165.7 37.239zm46.057 312.014v14.7A17.915 17.915 0 0 0 229.5 381.7h54.531a17.881 17.881 0 0 0 17.736-17.752v-14.7zm109.2-56H190.99v31.407h129.968v-31.41zm125.837-126.322L392.427 189.7l-.906 2a181.19 181.19 0 0 1-27.242 42.781l-9.045 10.619a38.575 38.575 0 0 0-9.644 26.168v48.158a29.894 29.894 0 0 1-16.177 26.5l-3.016 1.564v16.46a42.4 42.4 0 0 1-42.369 42.35H268.29v88.69l178.5-74.779z" fill="#ffffff" opacity="1" data-original="#000000" class=""></path></g></svg>