<?xml version="1.0" encoding="utf-8"?>
<!-- Generator: Adobe Illustrator 27.0.1, SVG Export Plug-In . SVG Version: 6.00 Build 0)  -->
<svg version="1.1" id="Calque_1" xmlns="http://www.w3.org/2000/svg" xmlns:xlink="http://www.w3.org/1999/xlink" x="0px" y="0px"
	 viewBox="0 0 24 24" style="enable-background:new 0 0 24 24;" xml:space="preserve">
<style type="text/css">
	.st0{fill:url(#Tracé_78_00000106838479666404806540000006216395877342793346_);}
	.st1{fill:#1C1B49;}
</style>
<g>
	
		<linearGradient id="Tracé_78_00000145763045516435521980000012975930175678432936_" gradientUnits="userSpaceOnUse" x1="25.5592" y1="25.7759" x2="18.6078" y2="14.4992">
		<stop  offset="0" style="stop-color:#2743A6"/>
		<stop  offset="0.46" style="stop-color:#8F1AEB"/>
		<stop  offset="0.734" style="stop-color:#C860D5"/>
		<stop  offset="1" style="stop-color:#FFA4C0"/>
	</linearGradient>
	
		<path id="Tracé_78_00000032617979700307533910000012564404900004210108_" style="fill:url(#Tracé_78_00000145763045516435521980000012975930175678432936_);" d="
		M16.01,18.86L18.82,24h5.04l-2.56-4.43c2.24-2.71,2.55-5.71,2.55-5.71h-4.1C19.75,13.86,19.15,17.01,16.01,18.86z"/>
	<path class="st1" d="M24,12.31l-4.01,0c0.07-3.36-1.52-5.45-3.03-6.66c-2.18-1.7-4.61-1.67-4.61-1.67C9.26,3.9,7.41,5.29,6.36,6.33
		c-1.58,1.58-2.38,3.74-2.3,5.97c0.11,3.55,2.7,6.57,6.07,7.38c0.83,0.2,1.27,0.2,1.55,0.22c1.67,0.03,2.04,0.03,3.17,0.03L17.06,24
		c0,0-3.75,0-4.88,0c-7.5-0.09-10.94-5.6-11.8-8.97c-0.79-2.86-0.11-5.62-0.11-5.62c1.27-5.6,6.25-9.58,12.18-9.4
		c0.66,0.09,4.38,0.02,7.97,3.45C22.21,5.24,24.05,8.07,24,12.31"/>
</g>
</svg>
